<svg xmlns="http://www.w3.org/2000/svg" width="114" height="127" fill="none"><path fill="#613985" fill-rule="evenodd" d="M60.25 0c1.333 10.167 5.3 32.2 10.5 39 8.489 1.103 29.554-6.478 39.025-10.407l3.5 6.062C105.137 40.894 88.039 55.597 84.75 63.5c3.289 7.903 20.387 22.355 28.525 28.593l-3.5 6.062c-9.471-3.928-30.536-11.51-39.025-10.406-5.2 6.8-9.167 28.584-10.5 38.751h-7c-1.333-10.167-5.3-31.951-10.5-38.751-8.489-1.104-29.779 6.478-39.25 10.406L0 92.093c8.138-6.238 25.236-20.941 28.525-28.844C25.236 55.345 8.138 40.894 0 34.655l3.5-6.062C12.971 32.522 34.261 40.103 42.75 39c5.2-6.8 9.167-28.833 10.5-39h7ZM56.5 86C68.926 86 79 75.926 79 63.5S68.926 41 56.5 41 34 51.074 34 63.5 44.074 86 56.5 86Z" clip-rule="evenodd"/></svg>