<svg version="1.0" xmlns="http://www.w3.org/2000/svg" preserveAspectRatio="xMidYMid meet" viewBox="533.9 0.98 144.92 163.03">     <g transform="translate(0.000000,168.000000) scale(0.100000,-0.100000)" fill="#000000" stroke="none">         <path fill="#75598e" d="M6026 1623 c-18 -125 -78 -336 -118 -417 l-20 -38 -76 7 c-89 8 -269 53 -361 90 -36 14 -67 25 -71 25 -3 0 -14 -14 -23 -30 l-18 -30 33 -28 c123 -102 177 -154 238 -224 99 -117 99 -116 59 -175 -39 -57 -193 -214 -264 -268 -27 -22 -54 -42 -58 -46 -8 -6 18 -69 29 -69 3 0 51 16 107 36 116 40 240 69 339 79 l68 7 21 -48 c49 -115 76 -216 115 -431 4 -19 11 -23 40 -23 38 0 37 -3 54 95 20 112 50 223 82 299 16 39 32 79 35 90 5 16 13 17 82 11 96 -8 210 -35 326 -75 50 -17 97 -34 106 -37 11 -3 20 6 29 28 14 32 13 33 -31 68 -123 99 -309 300 -309 334 0 36 180 234 309 338 38 31 43 40 37 63 -10 39 -27 41 -98 13 -95 -38 -283 -85 -368 -92 l-75 -7 -27 69 c-49 123 -78 224 -95 329 l-17 104 -37 0 c-36 0 -37 -1 -43 -47z m175 -510 c57 -30 98 -74 131 -136 18 -33 23 -58 23 -122 0 -89 -17 -133 -78 -201 -64 -74 -193 -106 -300 -75 -57 16 -127 76 -164 138 -35 61 -44 172 -18 240 30 77 104 146 194 180 54 20 151 10 212 -24z"></path>     </g> </svg>